<?xml version="1.0" encoding="UTF-8"?>
<svg id="Layer_1" data-name="Layer 1" xmlns="http://www.w3.org/2000/svg" viewBox="0 0 1199 1199">
  <path d="M1199,1199H0V0h1199v1199ZM36.68,1162.32h1125.65V36.68H36.68v1125.64Z"/>
  <g>
    <g>
      <path d="M171.24,559.37v-146.72h31.02v64.69h1.93l52.8-64.69h37.18l-54.45,65.69,55.09,81.02h-37.11l-40.19-60.32-15.26,18.63v41.69h-31.02Z"/>
      <path d="M416.12,412.65h31.02v95.28c0,10.7-2.54,20.06-7.63,28.08-5.09,8.02-12.2,14.27-21.31,18.73-9.13,4.47-19.75,6.7-31.88,6.7s-22.84-2.23-31.95-6.7c-9.13-4.46-16.22-10.71-21.28-18.73-5.07-8.02-7.59-17.38-7.59-28.08v-95.28h31.02v92.63c0,5.59,1.23,10.56,3.69,14.9,2.45,4.35,5.93,7.76,10.42,10.24,4.49,2.49,9.72,3.73,15.69,3.73s11.26-1.24,15.73-3.73c4.46-2.48,7.93-5.9,10.39-10.24,2.45-4.34,3.69-9.31,3.69-14.9v-92.63Z"/>
      <path d="M578.4,412.65h31.02v95.28c0,10.7-2.54,20.06-7.63,28.08-5.09,8.02-12.19,14.27-21.31,18.73-9.13,4.47-19.75,6.7-31.88,6.7s-22.83-2.23-31.95-6.7c-9.13-4.46-16.22-10.71-21.28-18.73s-7.59-17.38-7.59-28.08v-95.28h31.02v92.63c0,5.59,1.23,10.56,3.69,14.9,2.46,4.35,5.94,7.76,10.42,10.24,4.49,2.49,9.72,3.73,15.69,3.73s11.26-1.24,15.73-3.73c4.47-2.48,7.93-5.9,10.39-10.24,2.46-4.34,3.69-9.31,3.69-14.9v-92.63Z"/>
      <path d="M650.05,412.65h38.26l40.41,98.58h1.72l40.41-98.58h38.26v146.72h-30.09v-95.5h-1.22l-37.97,94.78h-20.49l-37.97-95.14h-1.22v95.85h-30.09v-146.72Z"/>
      <path d="M949.74,559.37h33.24l-50.58-146.72h-39.98l-50.65,146.72h33.24l10.88-33.46h52.97l10.86,33.46ZM893.78,501.7l18.06-55.52h1.15l18.03,55.52h-37.23Z"/>
      <path d="M272.32,696.93c-.57-5.78-3.04-10.27-7.38-13.47s-10.24-4.8-17.7-4.8c-5.06,0-9.34.71-12.82,2.11s-6.15,3.36-7.99,5.84-2.76,5.3-2.76,8.45c-.1,2.62.47,4.92,1.68,6.88s2.9,3.64,5.05,5.05,4.63,2.62,7.45,3.65,5.83,1.9,9.03,2.61l13.18,3.15c6.4,1.43,12.28,3.34,17.62,5.73s9.98,5.33,13.9,8.81,6.96,7.59,9.13,12.32,3.29,10.15,3.33,16.26c-.04,8.98-2.33,16.75-6.84,23.32s-11.01,11.65-19.49,15.26c-8.48,3.6-18.69,5.41-30.63,5.41s-22.15-1.82-30.91-5.44-15.59-9.02-20.49-16.15c-4.9-7.14-7.46-15.98-7.7-26.54h30.02c.33,4.92,1.76,9.02,4.26,12.29,2.51,3.27,5.87,5.73,10.1,7.38s9.02,2.47,14.36,2.47,9.82-.76,13.72-2.29,6.91-3.65,9.06-6.38,3.22-5.85,3.22-9.38c0-3.3-.97-6.06-2.9-8.31s-4.76-4.16-8.45-5.73-8.23-3.01-13.58-4.3l-15.98-4.01c-12.37-3.01-22.14-7.71-29.3-14.11-7.16-6.4-10.72-15.02-10.67-25.86-.04-8.88,2.33-16.65,7.13-23.28s11.4-11.82,19.81-15.55c8.41-3.73,17.95-5.59,28.66-5.59s20.41,1.86,28.55,5.59c8.14,3.73,14.48,8.91,19.02,15.55s6.88,14.33,7.02,23.07h-29.73Z"/>
      <path d="M436.53,801.45h33.24l-50.58-146.72h-39.98l-50.65,146.72h33.24l10.88-33.46h52.97l10.86,33.46ZM380.57,743.78l18.06-55.52h1.15l18.03,55.52h-37.23Z"/>
      <path d="M593.15,654.73h31.02v95.28c0,10.7-2.54,20.06-7.63,28.08s-12.2,14.27-21.31,18.73c-9.13,4.47-19.75,6.7-31.88,6.7s-22.84-2.23-31.95-6.7c-9.13-4.47-16.22-10.71-21.28-18.73-5.07-8.02-7.59-17.38-7.59-28.08v-95.28h31.02v92.63c0,5.59,1.23,10.56,3.69,14.9,2.45,4.34,5.93,7.76,10.42,10.24,4.49,2.48,9.72,3.73,15.69,3.73s11.26-1.24,15.73-3.73c4.46-2.48,7.93-5.9,10.39-10.24,2.45-4.34,3.69-9.31,3.69-14.9v-92.63Z"/>
      <path d="M787.53,654.73v146.72h-26.79l-63.83-92.34h-1.07v92.34h-31.02v-146.72h27.22l63.33,92.27h1.29v-92.27h30.88Z"/>
      <path d="M928.24,801.45h33.24l-50.58-146.72h-39.98l-50.65,146.72h33.24l10.88-33.46h52.97l10.86,33.46ZM872.28,743.78l18.06-55.52h1.15l18.03,55.52h-37.23Z"/>
    </g>
    <path d="M1049.46,419.25c-24.98,0-45.31-20.33-45.31-45.32s20.33-45.32,45.31-45.32,45.32,20.33,45.32,45.32-20.33,45.32-45.32,45.32ZM1049.46,351.53c-12.35,0-22.39,10.05-22.39,22.4s10.04,22.4,22.39,22.4,22.4-10.05,22.4-22.4-10.05-22.4-22.4-22.4Z"/>
  </g>
</svg>